<?xml version="1.0" standalone="no"?>
<!DOCTYPE svg PUBLIC "-//W3C//DTD SVG 20010904//EN"
 "http://www.w3.org/TR/2001/REC-SVG-20010904/DTD/svg10.dtd">
<svg version="1.0" xmlns="http://www.w3.org/2000/svg"
 width="220.000000pt" height="220.000000pt" viewBox="0 0 220.000000 220.000000"
 preserveAspectRatio="xMidYMid meet">
<metadata>
Created by potrace 1.16, written by Peter Selinger 2001-2019
</metadata>
<g transform="translate(0.000000,220.000000) scale(0.100000,-0.100000)"
fill="#000000" stroke="none">
<path d="M970 2170 c-246 -29 -482 -148 -653 -329 -441 -468 -377 -1221 138
-1604 193 -144 395 -210 640 -210 147 -1 209 8 339 49 365 116 636 418 723
808 21 96 21 336 0 432 -24 105 -54 188 -103 284 -203 395 -637 623 -1084 570z
m271 -46 c226 -66 379 -268 379 -501 0 -285 -235 -521 -520 -523 -138 -1 -271
-58 -370 -159 -200 -204 -201 -525 -2 -726 66 -66 122 -102 212 -132 80 -27
63 -29 -55 -4 -419 86 -747 430 -815 853 -18 109 -8 331 19 431 45 172 131
324 255 454 198 210 450 321 732 322 74 1 128 -4 165 -15z m-70 -1430 c40 -20
73 -93 65 -140 -14 -71 -90 -123 -161 -110 -47 9 -92 50 -106 96 -16 53 9 120
54 149 39 25 106 27 148 5z"/>
<path d="M1044 1746 c-68 -30 -97 -103 -69 -174 21 -52 67 -82 124 -82 61 0
99 24 123 77 33 74 4 149 -68 179 -41 17 -70 17 -110 0z"/>
</g>
</svg>
