<?xml version="1.0" standalone="no"?>
<!DOCTYPE svg PUBLIC "-//W3C//DTD SVG 20010904//EN"
 "http://www.w3.org/TR/2001/REC-SVG-20010904/DTD/svg10.dtd">
<svg version="1.0" xmlns="http://www.w3.org/2000/svg"
 width="218.000000pt" height="315.000000pt" viewBox="0 0 218.000000 315.000000"
 preserveAspectRatio="xMidYMid meet">
<metadata>
Created by potrace 1.16, written by Peter Selinger 2001-2019
</metadata>
<g transform="translate(0.000000,315.000000) scale(0.100000,-0.100000)"
fill="#000000" stroke="none">
<path d="M1050 2450 c-8 -5 -22 -11 -31 -14 -34 -10 -72 -75 -77 -130 -5 -66
16 -114 66 -153 32 -24 46 -28 104 -28 63 0 69 2 102 34 66 64 83 134 47 203
-23 45 -37 60 -80 81 -36 18 -106 22 -131 7z"/>
<path d="M1040 2041 c-31 -9 -73 -26 -93 -38 -21 -13 -41 -23 -43 -23 -19 0
-134 -137 -134 -159 0 -5 -6 -22 -14 -38 -23 -45 -40 -138 -32 -180 27 -137
38 -169 83 -233 56 -81 158 -167 186 -157 7 3 4 8 -7 13 -11 4 -34 23 -50 43
-17 19 -36 39 -42 45 -20 21 -69 111 -86 161 -23 64 -24 193 -2 243 45 103 58
121 124 172 64 50 80 57 149 70 125 23 228 -23 298 -133 24 -37 27 -52 27
-122 0 -83 -11 -114 -58 -160 -78 -75 -189 -84 -257 -21 -48 45 -69 87 -69
140 0 25 -4 46 -10 46 -6 0 -10 -29 -10 -68 0 -60 4 -74 29 -109 16 -23 46
-54 67 -69 34 -26 45 -29 118 -29 115 0 178 36 244 140 23 36 26 50 26 137 0
120 -15 156 -100 242 -46 45 -83 66 -161 90 -63 19 -111 19 -183 -3z"/>
<path d="M695 1173 c-78 -10 -174 -82 -209 -158 -30 -61 -32 -102 -11 -163 16
-45 89 -132 110 -132 7 0 18 -6 24 -14 16 -19 122 -39 179 -34 51 5 144 44
177 75 11 10 34 29 50 41 17 13 70 60 119 105 49 45 105 96 124 112 19 17 49
42 66 57 55 48 173 49 249 1 41 -26 73 -70 83 -115 8 -40 -24 -123 -64 -164
-57 -59 -105 -78 -199 -77 -89 1 -109 -10 -40 -22 91 -16 190 -10 238 14 47
23 119 83 119 98 0 5 6 15 12 21 7 7 18 36 24 63 20 87 -16 179 -89 231 -75
54 -98 61 -192 62 -93 0 -151 -17 -201 -61 -11 -10 -46 -40 -79 -68 -33 -27
-86 -74 -119 -105 -77 -72 -73 -69 -131 -115 -27 -22 -52 -42 -55 -45 -3 -3
-28 -13 -57 -23 -49 -18 -54 -18 -107 -1 -141 44 -193 160 -122 272 48 77 131
121 229 122 31 0 57 4 57 9 0 17 -103 25 -185 14z"/>
</g>
</svg>
